# xmcd CD database file
#
# Track frame offsets:
#	150
#	14295
#	29370
#	43040
#	56571
#	69830
#	83903
#	98342
#	111677
#	125714
#	139244
#	153263
#	166946
#	181477
#	195750
#	208005
#	222537
#	235998
#
# Disc length: 3329 seconds
#
# Revision: 0
# Processed by: cddbd v1.5.2PL0 Copyright (c) Steve Scherf et al.
# Submitted via: CDex 1.51
#
DISCID=fa0cff12
DTITLE=John Lee Hooker - John Lee Hooker Original Recordings
DYEAR=2005
DGENRE=Blues
TTITLE0=Boogie Chillen
TTITLE1=Shady Grove Blues
TTITLE2=Hobo Blues
TTITLE3=Crawling King Snake
TTITLE4=Momma Poppa Boogie
TTITLE5=The Numbers
TTITLE6=Sally Mae
TTITLE7=She Was In Chicago
TTITLE8=Talking Boogie
TTITLE9=Drifting From Door To Door
TTITLE10=Alberta
TTITLE11=Black Cat Blues
TTITLE12=Forgive Me
TTITLE13=Whistlin' And Moanin' Blues
TTITLE14=Burning Hell
TTITLE15=Don't Go Baby
TTITLE16=Need Somebody
TTITLE17=Bad Boy
EXTD=YEAR: 2005
EXTT0=
EXTT1=
EXTT2=
EXTT3=
EXTT4=
EXTT5=
EXTT6=
EXTT7=
EXTT8=
EXTT9=
EXTT10=
EXTT11=
EXTT12=
EXTT13=
EXTT14=
EXTT15=
EXTT16=
EXTT17=
PLAYORDER=
